<?xml version="1.0" encoding="UTF-8"?>
<svg id="Layer_2" data-name="Layer 2" xmlns="http://www.w3.org/2000/svg" viewBox="0 0 622.81 724.27">
  <defs>
    <style>
      .cls-1 {
        fill: #05ffff;
      }
    </style>
  </defs>
  <path class="cls-1" d="M472.78,257.65l150.03-149.02C513.69-.63,348.21-30.65,210.48,33.11,80.69,93.2-2.15,226.24.04,371.43c3.76,145.21,94.06,274.64,228.57,327.75,132.08,52.15,283.53,21.53,385.64-78.03-49.84-49.67-99.68-99.35-149.52-149.02-13.29,12.5-35.95,29.67-67.97,37.26-42.92,10.17-98.11,2.06-134.44-35.71-17.73-18.43-25.85-38.6-29.69-50.89,25.59-2.28,47.35-4.49,64.22-6.3,39.01-4.18,29.66-3.83,44.69-5.11,14.78-1.27,28.23-1.98,46.99-6.37,5.4-1.26,9.8-2.49,12.75-3.36-98.18,4.1-177.42-2.61-233.6-10.07-33.11-4.39-100.55-13.61-100.69-26.68-.14-13.27,69.09-26.77,102.2-33.23,19.35-3.77,35.56-6.11,46.82-7.55,4.23-13.62,19.2-55.69,62.43-85.59,11.37-7.86,45.86-30.97,94.65-28.19,56.45,3.21,91.67,38.79,99.68,47.32Z"/>
</svg>